<svg xmlns="http://www.w3.org/2000/svg" viewBox="0 0 240 160" role="img" aria-label="Eventos">
<title>Eventos</title>
<g fill="none" stroke="#111111" stroke-width="1.5" stroke-linecap="round" stroke-linejoin="round">

<circle cx="116" cy="82" r="50" fill="#FFCD00" stroke="none"/>
<path d="M44 136H196"/>
<rect x="70" y="46" width="100" height="88" rx="8" fill="#FFFFFF"/>
<path d="M70 70V54a8 8 0 0 1 8-8h84a8 8 0 0 1 8 8v16Z" fill="#111111"/>
<rect x="88" y="36" width="8" height="18" rx="4" fill="#FFFFFF"/>
<rect x="144" y="36" width="8" height="18" rx="4" fill="#FFFFFF"/>
<rect x="84" y="80" width="14" height="11" rx="2.5" fill="#E6E6E6" stroke="none"/><rect x="105" y="80" width="14" height="11" rx="2.5" fill="#E6E6E6" stroke="none"/><rect x="126" y="80" width="14" height="11" rx="2.5" fill="#E6E6E6" stroke="none"/><rect x="147" y="80" width="14" height="11" rx="2.5" fill="#E6E6E6" stroke="none"/><rect x="84" y="98" width="14" height="11" rx="2.5" fill="#E6E6E6" stroke="none"/><rect x="105" y="98" width="14" height="11" rx="2.5" fill="#E6E6E6" stroke="none"/><rect x="126" y="98" width="14" height="11" rx="2.5" fill="#FFCD00"/><rect x="147" y="98" width="14" height="11" rx="2.5" fill="#E6E6E6" stroke="none"/><rect x="84" y="116" width="14" height="11" rx="2.5" fill="#E6E6E6" stroke="none"/><rect x="105" y="116" width="14" height="11" rx="2.5" fill="#E6E6E6" stroke="none"/><rect x="126" y="116" width="14" height="11" rx="2.5" fill="#E6E6E6" stroke="none"/><rect x="147" y="116" width="14" height="11" rx="2.5" fill="#E6E6E6" stroke="none"/>
<path d="M176 40L190 30L186 48Z" fill="#FFCD00"/>
<path d="M58 64l6-4M196 70l7 2M60 112l-6 3"/>


</g>
</svg>
