<svg xmlns="http://www.w3.org/2000/svg" viewBox="0 0 240 160" role="img" aria-label="Itinerarios de viaje">
<title>Itinerarios de viaje</title>
<g fill="none" stroke="#111111" stroke-width="1.5" stroke-linecap="round" stroke-linejoin="round">

<circle cx="120" cy="80" r="54" fill="#FFCD00" stroke="none"/>
<path d="M44 136H196"/>
<path d="M54 52L96 40L144 52L186 40V120L144 132L96 120L54 132Z" fill="#FFFFFF"/>
<path d="M96 40V120M144 52V132"/>
<path d="M54 52L96 40V120L54 132Z" fill="#E6E6E6" stroke="none"/><path d="M54 52L96 40V120L54 132Z"/>
<path d="M74 112C92 94 108 116 122 92S150 78 162 76" stroke-dasharray="4 6"/>
<circle cx="74" cy="112" r="4.5" fill="#111111" stroke="none"/>
<path d="M164 82C164 82 150 66 150 56a14 14 0 0 1 28 0c0 10-14 26-14 26Z" fill="#FFCD00"/>
<circle cx="164" cy="56" r="5" fill="#FFFFFF"/>


</g>
</svg>
